<svg width="247" height="202" viewBox="0 0 247 202" fill="none" xmlns="http://www.w3.org/2000/svg">
<path d="M150.077 52.2661C155.314 52.2658 160.434 53.6645 164.795 56.2865H167.864V48.2456H132.29C129.142 48.2388 126.033 47.6215 123.172 46.4355C120.31 45.2495 117.764 43.5224 115.704 41.3706C114.067 43.4862 111.891 45.2151 109.361 46.4116C106.83 47.608 104.018 48.237 101.163 48.2456H78.9292V56.2865H81.9974C86.3584 53.6645 91.4789 52.2658 96.7161 52.2661H150.077Z" fill="white"/>
<path d="M78.9292 158.044L88.4007 157.522C90.6578 157.389 92.7741 156.483 94.3189 154.99C95.8637 153.496 96.7209 151.526 96.7161 149.481V127.891C89.6047 124.621 83.4953 119.815 78.9292 113.9V158.044Z" fill="white"/>
<path d="M126.999 88.4503H119.795C117.98 91.3023 115.538 93.7874 112.619 95.7521C109.699 97.7168 106.365 99.1193 102.823 99.8729C99.2806 100.626 95.6048 100.715 92.0229 100.134C88.441 99.5519 85.0292 98.3123 81.9981 96.4913H79.9526C81.9321 104.498 86.8777 111.654 93.97 116.772C101.062 121.89 109.876 124.664 118.95 124.635H127.844C136.918 124.664 145.732 121.89 152.824 116.772C159.917 111.654 164.862 104.498 166.842 96.4913H164.796C161.765 98.3123 158.353 99.5519 154.771 100.134C151.189 100.715 147.514 100.626 143.971 99.8729C140.429 99.1193 137.095 97.7168 134.176 95.7521C131.256 93.7874 128.814 91.3023 126.999 88.4503V88.4503Z" fill="white"/>
<path d="M96.7161 92.4708C100.173 92.4701 103.555 91.5567 106.447 89.8425C109.338 88.1284 111.612 85.6882 112.991 82.8216C113.343 82.1059 113.917 81.4974 114.643 81.0694C115.368 80.6414 116.216 80.4122 117.082 80.4094H129.711C130.577 80.4122 131.424 80.6414 132.15 81.0694C132.876 81.4974 133.45 82.1059 133.802 82.8216C135.085 85.4799 137.139 87.775 139.748 89.4637C142.356 91.1525 145.42 92.172 148.617 92.4145C151.814 92.6569 155.023 92.1132 157.906 90.8408C160.789 89.5685 163.238 87.615 164.993 85.1871C166.748 82.7592 167.744 79.9474 167.876 77.0494C168.007 74.1514 167.27 71.2751 165.741 68.7252C164.212 66.1753 161.949 64.0466 159.192 62.5647C156.434 61.0827 153.285 60.3026 150.077 60.307H96.7161C91.9987 60.307 87.4746 62.0014 84.1389 65.0173C80.8032 68.0332 78.9292 72.1237 78.9292 76.3889C78.9292 80.6541 80.8032 84.7446 84.1389 87.7605C87.4746 90.7764 91.9987 92.4708 96.7161 92.4708ZM150.077 88.4503C149.197 88.4503 148.338 88.2145 147.606 87.7727C146.875 87.331 146.305 86.703 145.969 85.9684C145.632 85.2337 145.544 84.4254 145.716 83.6455C145.887 82.8656 146.311 82.1492 146.932 81.5869C147.554 81.0247 148.347 80.6417 149.209 80.4866C150.072 80.3315 150.966 80.4111 151.778 80.7154C152.591 81.0197 153.286 81.535 153.774 82.1962C154.263 82.8573 154.524 83.6347 154.524 84.4298C154.524 85.4961 154.055 86.5187 153.221 87.2727C152.387 88.0267 151.256 88.4503 150.077 88.4503ZM158.97 72.3684C159.85 72.3684 160.709 72.6042 161.441 73.046C162.172 73.4878 162.742 74.1157 163.078 74.8503C163.415 75.585 163.503 76.3934 163.332 77.1733C163.16 77.9531 162.736 78.6695 162.115 79.2318C161.493 79.7941 160.7 80.177 159.838 80.3321C158.975 80.4872 158.081 80.4076 157.269 80.1033C156.456 79.799 155.762 79.2837 155.273 78.6225C154.784 77.9614 154.524 77.1841 154.524 76.3889C154.524 75.3226 154.992 74.3 155.826 73.546C156.66 72.792 157.791 72.3684 158.97 72.3684ZM150.077 64.3275C150.956 64.3275 151.816 64.5633 152.547 65.0051C153.279 65.4468 153.848 66.0748 154.185 66.8094C154.522 67.544 154.61 68.3524 154.438 69.1323C154.267 69.9122 153.843 70.6286 153.221 71.1909C152.599 71.7531 151.807 72.136 150.944 72.2912C150.082 72.4463 149.188 72.3667 148.375 72.0624C147.563 71.7581 146.868 71.2428 146.379 70.5816C145.891 69.9205 145.63 69.1431 145.63 68.348C145.63 67.2817 146.099 66.259 146.932 65.5051C147.766 64.7511 148.897 64.3275 150.077 64.3275ZM141.183 72.3684C142.063 72.3684 142.923 72.6042 143.654 73.046C144.385 73.4878 144.955 74.1157 145.292 74.8503C145.628 75.585 145.716 76.3934 145.545 77.1733C145.373 77.9531 144.95 78.6695 144.328 79.2318C143.706 79.7941 142.913 80.177 142.051 80.3321C141.188 80.4872 140.294 80.4076 139.482 80.1033C138.669 79.799 137.975 79.2837 137.486 78.6225C136.997 77.9614 136.737 77.1841 136.737 76.3889C136.737 75.3226 137.205 74.3 138.039 73.546C138.873 72.792 140.004 72.3684 141.183 72.3684ZM87.8227 72.3684H92.2694V68.348H101.163V72.3684H105.61V80.4094H101.163V84.4298H92.2694V80.4094H87.8227V72.3684Z" fill="white"/>
<path d="M78.9292 40.2047H101.163C103.519 40.1983 105.777 39.3491 107.444 37.8425C109.11 36.3359 110.049 34.2944 110.056 32.1637V20.1023H118.95V28.1433C118.96 31.3392 120.369 34.4016 122.869 36.6614C125.368 38.9213 128.755 40.1951 132.29 40.2047H167.864V36.1842C167.847 26.5921 163.625 17.3972 156.124 10.6146C148.622 3.83192 138.452 0.0148863 127.843 0H118.95C108.341 0.0148863 98.1709 3.83192 90.6691 10.6146C83.1674 17.3972 78.9457 26.5921 78.9292 36.1842V40.2047Z" fill="white"/>
<path d="M176.757 36.1842V40.2046H181.204V48.2456H176.757V56.2865H195.389C196.595 56.3204 197.797 56.4143 198.991 56.5679V52.266C198.97 41.3773 195.193 30.7656 188.187 21.9089C181.181 13.0522 171.294 6.39151 159.904 2.85449C165.194 6.99115 169.437 12.1089 172.345 17.8599C175.253 23.611 176.758 29.8606 176.757 36.1842Z" fill="white"/>
<path d="M61.1431 97.3356V159.05L70.0365 158.567V96.4913H63.9C62.904 96.4942 61.9361 96.7906 61.1431 97.3356V97.3356Z" fill="white"/>
<path d="M201.215 170.146C198.254 168.556 194.914 167.632 191.476 167.452L173.156 166.407C159.904 178.252 142.031 184.909 123.397 184.941C114.162 184.966 105.012 183.341 96.4733 180.161C87.9343 176.98 80.1742 172.306 73.6382 166.407L55.3177 167.452C50.5131 167.729 45.9461 169.44 42.3333 172.317L35.5298 201.023H211.264L204.461 172.237C203.458 171.445 202.371 170.744 201.215 170.146V170.146Z" fill="white"/>
<path d="M63.8994 88.4503H73.6377C71.2789 84.7884 70.0362 80.6265 70.0362 76.3889C70.0362 72.1513 71.2789 67.9894 73.6377 64.3275H51.4041C46.3364 64.3056 41.4145 65.8596 37.4636 68.7291C33.5127 71.5985 30.7731 75.6089 29.7041 80.0877L0 201.023H26.4135L50.826 97.9788C51.4882 95.286 53.1425 92.8766 55.5178 91.1453C57.8931 89.4141 60.8485 88.4638 63.8994 88.4503V88.4503Z" fill="white"/>
<path d="M217.089 80.0877C216.02 75.6089 213.28 71.5985 209.329 68.7291C205.378 65.8596 200.457 64.3056 195.389 64.3275H173.155C175.514 67.9894 176.757 72.1513 176.757 76.3889C176.757 80.6265 175.514 84.7884 173.155 88.4503H182.894C185.945 88.4638 188.9 89.4141 191.275 91.1453C193.65 92.8766 195.305 95.286 195.967 97.9788L220.379 201.023H246.793L217.089 80.0877Z" fill="white"/>
<path d="M160.527 165.724L157.859 165.563C153.344 165.288 149.113 163.476 146.018 160.491C142.924 157.506 141.196 153.572 141.184 149.481V131.027C136.838 132.111 132.352 132.666 127.843 132.675H118.95C114.442 132.666 109.955 132.111 105.61 131.027V149.481C105.598 153.572 103.87 157.506 100.775 160.491C97.6805 163.476 93.4491 165.288 88.9346 165.563L86.311 165.724C97.0184 172.979 110.038 176.901 123.419 176.901C136.799 176.901 149.82 172.979 160.527 165.724Z" fill="white"/>
<path d="M70.0365 36.1842C70.0294 30.3524 71.3032 24.5773 73.784 19.194C76.2649 13.8107 79.9034 8.92648 84.4884 4.82458C77.4328 8.27338 71.5389 13.3816 67.4295 19.6093C63.3202 25.837 61.1482 32.9529 61.1431 40.2047V56.2866H70.0365V36.1842Z" fill="white"/>
<path d="M198.991 160.537V149.119L187.252 99.6674C187.038 98.7667 186.488 97.9598 185.695 97.3816C184.902 96.8034 183.913 96.4891 182.894 96.4912H175.913C174.579 103.173 171.552 109.484 167.07 114.932C162.588 120.379 156.772 124.815 150.077 127.891V149.481C150.072 151.526 150.93 153.496 152.474 154.99C154.019 156.484 156.135 157.389 158.393 157.522L192.01 159.412C194.377 159.541 196.72 159.919 198.991 160.537V160.537Z" fill="white"/>
</svg>
